<svg id="Layer_1" xmlns="http://www.w3.org/2000/svg" viewBox="0 0 157 46"><style>.st0{fill:#42ce9f}</style><title>Backlog Logo</title><path class="st0" d="M139.7 44.1l-.1-6.2 6.6-.1c2.4 0 4.6-2.5 4.6-5.2v-1.3c-3.1.2-6.1 0-9.2-.4-4.4-.7-8.1-3.7-9.8-7.7-.4-1-.7-2.1-.8-3.3-.2-4.3 1.8-8.5 5.3-11 3.8-3 8.8-4.1 13.5-3.1 3 .5 5.6 2.6 6.6 5.6.3.9.5 1.8.6 2.8-.2-1.6 0 0 0 0V32.8c0 6.1-5 11.3-10.7 11.4l-6.6-.1zm6.8-32.5c-2.3 0-4.5.7-6.3 2.1-1 .7-3.1 2.8-2.9 5.7 0 .4.1.9.3 1.3.9 2.1 2.9 3.6 5.2 4 2.7.4 5.4.5 8.1.3V14.6c0-.5-.1-.9-.3-1.3-.1-.3-.4-1.1-2-1.4-.7-.2-1.4-.3-2.1-.3zM3.2 31.4c-.8 0-1.6-.3-2.2-.9-.9-.9-.9-1.8-1-3.4v-3.3-9.7C.1 7.1.1 0 .1 0h6.2v5.1c7.4.9 12.9 4 15.2 8.9 1.8 3.9 1.2 8.4-1.7 11.7-4.3 5.3-10.6 5.7-16.6 5.7zm3.1-20v13.7c4.7-.2 7-1.2 8.8-3.4 1.3-1.4 1.6-3.3.8-5-1-2.2-4.1-4.5-9.6-5.3zM49.4 31.4h-6.2v-.5c-3 .2-5.9 0-8.9-.4-4.3-.7-7.9-3.6-9.6-7.6-1-2.6-1.1-5.4-.1-8 .9-2.4 2.5-4.4 4.5-6 3.8-2.9 8.6-4 13.3-3.1 3 .5 5.5 2.6 6.5 5.5.5 1.7.7 3.5.6 5.2l-.1 14.9zM39 11.7c-2.2 0-4.4.7-6.2 2.1-1.1.8-2 2-2.5 3.3-.4 1.1-.4 2.3 0 3.4.9 2 2.8 3.5 5 3.9 2.6.4 5.2.5 7.8.3v-8.2c.1-1.1 0-2.1-.2-3.2-.1-.3-.3-1-1.9-1.3-.6-.3-1.3-.3-2-.3zM96.2 31.4c0-3.4-.1-11.2-.1-16.6V0h6.2v14.8c0 5.3 0 13.1.1 16.5l-6.2.1zM68.6 31.4c-2.3.1-4.6-.2-6.8-.8-3.7-.8-7-2.9-9.2-6-2.9-3.9-2.8-9.3.2-13.1C55 8.6 58.3 6.7 62 6.1c2.1-.4 4.3-.6 6.4-.6h1.3v6.2h-1.3c-1.7-.1-3.5 0-5.2.4-2.2.3-4.1 1.4-5.5 3.1-1.4 1.7-1.4 4.2 0 5.9 1.4 1.8 3.4 3 5.6 3.5 2.1.5 4.3.8 6.4.6v6.2h-1.1zM83.1 17.4c3.8-3.6 5.8-7.6 5.8-11.8H83c0 2.1-1 5-4.8 8.3V0H72v14.2c0 5.7 0 14.1.1 17l6.2-.1c0-1.8 0-5.8-.1-10l.2-.2C83 27.8 88.3 31.4 94 31.4v-5.8c-4.4.1-8.3-4.2-10.9-8.2zM117.3 31.4h-1.2c-6.9 0-12.4-5.6-12.4-12.4v-1.2c0-6.8 5.6-12.4 12.4-12.4h1.2c6.9 0 12.4 5.6 12.4 12.4V19c0 6.8-5.6 12.4-12.4 12.4zm-1.2-19.8c-3.4 0-6.2 2.8-6.2 6.2V19c0 3.4 2.8 6.2 6.2 6.2h1.2c3.4 0 6.2-2.8 6.2-6.2v-1.2c0-3.4-2.8-6.2-6.2-6.2h-1.2zM115.9 44.1h-1.3v-3c0-.9-.7-1.6-1.6-1.6s-1.6.7-1.6 1.6v3h-1.3v-3c0-1.6 1.3-3 3-3 1.6 0 3 1.3 3 3v3zM119.4 44.3c-1.6 0-3-1.3-3-3v-3h1.3v3c0 .9.7 1.6 1.6 1.6.9 0 1.6-.7 1.6-1.6v-3h1.3v3c.2 1.7-1.1 3-2.8 3zM131 44.1h-3c-1.6 0-3-1.3-3-3s1.3-3 3-3h3v6zm-3-4.6c-.9 0-1.6.7-1.6 1.6 0 .9.7 1.6 1.6 1.6h1.7v-3.3H128z"/><path class="st0" d="M131 44.1h-3c-1.6 0-3-1.3-3-3s1.3-3 3-3h3v6zm-3-4.6c-.9 0-1.6.7-1.6 1.6 0 .9.7 1.6 1.6 1.6h1.7v-3.3H128zM134.7 44.1h-3v-8.4h1.4v2.5h1.7c1.6 0 3 1.3 3 3s-1.4 2.9-3.1 2.9zm-1.6-1.3h1.7c.9 0 1.6-.7 1.6-1.6s-.7-1.6-1.6-1.6h-1.7v3.2zM123 35.7h1.3v8.4H123zM100 44.2h-.7v-5.9h.7v2.6c.3-.6.9-.9 1.6-.9 1.2 0 2.2 1 2.2 2.2s-1 2.2-2.2 2.2c-.7 0-1.3-.3-1.6-.9v.7zm1.4-.6c.8 0 1.5-.6 1.5-1.4 0-.8-.6-1.5-1.5-1.5-.8 0-1.5.6-1.5 1.4 0 .8.7 1.5 1.5 1.5zM105.3 43.9l-1.6-3.9h.8l1.2 3 1.2-3h.8l-2.5 6h-.8l.9-2.1z"/></svg>