<svg id="Layer_1" data-name="Layer 1" xmlns="http://www.w3.org/2000/svg" xmlns:xlink="http://www.w3.org/1999/xlink" viewBox="0 0 190.25038 104.90759">
  <defs>
    <radialGradient id="radial-gradient" cx="188.80289" cy="3.78713" r="199.92" gradientUnits="userSpaceOnUse">
      <stop offset="0.04515" stop-color="#9f77a8"/>
      <stop offset="1" stop-color="#00aeef"/>
    </radialGradient>
    <radialGradient id="radial-gradient-2" cx="48.62358" cy="31.63915" r="134.81697" gradientUnits="userSpaceOnUse">
      <stop offset="0.10347" stop-color="#ed037c"/>
      <stop offset="1" stop-color="#9f77a8"/>
    </radialGradient>
    <radialGradient id="radial-gradient-3" cx="102.08895" cy="87.52889" r="69.8189" gradientUnits="userSpaceOnUse">
      <stop offset="0.14688" stop-color="#5c2d91"/>
      <stop offset="1" stop-color="#ed037c"/>
    </radialGradient>
    <linearGradient id="linear-gradient" x1="5.53141" y1="30.0385" x2="91.45865" y2="89.36314" gradientUnits="userSpaceOnUse">
      <stop offset="0" stop-color="#44c8f5"/>
      <stop offset="1" stop-color="#5c2d91"/>
    </linearGradient>
  </defs>
  <title>logo-3</title>
  <g>
    <path d="M186.459,13.81344A7.36934,7.36934,0,1,0,179.20509.984L12.30574,98.56714a3.42933,3.42933,0,0,0,1.8626,6.34022,3.37919,3.37919,0,0,0,1.43806-.34809Z" fill="url(#radial-gradient)"/>
    <path d="M184.25392,14.611A7.37,7.37,0,0,0,182.51728.0091c-0.152.00749-.30243,0.02035-0.45144,0.03755L51.37109,19.31156A10.05394,10.05394,0,0,0,53.636,39.26105c0.29425-.01712.58376-0.04931,0.86967-0.092Z" fill="url(#radial-gradient-2)"/>
    <path d="M60.95972,23.015A10.05446,10.05446,0,0,0,44.40619,34.35724L82.42952,97.29238A12.68141,12.68141,0,1,0,103.61724,83.361Z" fill="url(#radial-gradient-3)"/>
    <path d="M6.45743,28.22043A4.43315,4.43315,0,0,0,1.512,35.49922l84.062,65.19852a12.68074,12.68074,0,1,0,13.50585-21.374Z" fill="url(#linear-gradient)"/>
    <rect x="50.04901" y="37.05771" width="51.25302" height="51.25303"/>
    <rect x="54.4699" y="78.70079" width="19.21988" height="3.20332" fill="#fff"/>
    <g>
      <path d="M57.18952,51.96119a3.14761,3.14761,0,0,0,2.29126-.84729,3.10336,3.10336,0,0,0,.82343-2.351V43.4643H58.001V48.751a0.97362,0.97362,0,0,1-.94281,1.16949,1.691,1.691,0,0,1-1.31274-.7757L54.25385,50.553A3.41141,3.41141,0,0,0,57.18952,51.96119Z" fill="#fff"/>
      <polygon points="67.619 49.849 63.132 49.849 63.132 48.524 67.142 48.524 67.142 46.698 63.132 46.698 63.132 45.422 67.56 45.422 67.56 43.464 60.841 43.464 60.841 51.818 67.619 51.818 67.619 49.849" fill="#fff"/>
      <polygon points="70.586 51.818 72.901 51.818 72.901 45.493 75.407 45.493 75.407 43.464 68.092 43.464 68.092 45.493 70.586 45.493 70.586 51.818" fill="#fff"/>
      <path d="M60.28028,57.75635a1.93354,1.93354,0,0,0,1.28888-1.86163V55.87079a1.87982,1.87982,0,0,0-.537-1.36041,3.12866,3.12866,0,0,0-2.27936-.73993H54.46864v8.35364h4.308c1.99292,0,3.16241-.87115,3.16241-2.30316V59.797A2.02711,2.02711,0,0,0,60.28028,57.75635Zm-3.55621-2.12421h1.51563c0.68024,0,1.05011.25061,1.05011,0.716V56.372c0,0.48926-.40576.728-1.1098,0.728H56.72407V55.63215Zm2.8999,3.86652c0,0.48926-.3938.76373-1.1098,0.76373h-1.7901V58.723H58.4903c0.7757,0,1.13367.29834,1.13367,0.75183v0.02386Z" fill="#fff"/>
      <path d="M72.40449,53.71082l-3.12134,7.40924-1.30573-1.90784a2.64656,2.64656,0,0,0,1.71838-2.57764V56.61072a2.60826,2.60826,0,0,0-.73987-1.94525,3.69837,3.69837,0,0,0-2.72083-.895H62.285v8.35364h2.31506v-2.53h1.02637l1.68262,2.53h3.97363l0.59674-1.5036h3.234l0.59668,1.5036h2.4823l-3.55634-8.41327H72.40449Zm-5.0238,3.07886a1.04926,1.04926,0,0,1-1.24109.99054H64.60011V55.76343h1.52753a1.04265,1.04265,0,0,1,1.25305,1.00244v0.0238Zm5.179,2.02881,0.94281-2.36292,0.93079,2.36292h-1.8736Z" fill="#fff"/>
      <rect x="78.46656" y="53.77045" width="2.31512" height="8.35364" fill="#fff"/>
      <polygon points="86.951 58.186 83.514 53.77 81.354 53.77 81.354 62.124 83.646 62.124 83.646 57.542 87.226 62.124 89.243 62.124 89.243 53.77 86.951 53.77 86.951 58.186" fill="#fff"/>
      <path d="M93.57636,56.921c-1.16949-.26251-1.45587-0.42957-1.45587-0.81146V56.08564c0-.3103.27448-0.537,0.83533-0.537a4.10069,4.10069,0,0,1,2.33905.82336l1.15753-1.63489a5.25781,5.25781,0,0,0-3.43689-1.10986c-2.00488,0-3.23407,1.12183-3.23407,2.67316v0.02386c0,1.70654,1.37238,2.20776,3.15057,2.61353,1.14557,0.27448,1.42.45343,1.42,0.81152v0.0238c0,0.358-.33417.57288-0.96661,0.57288a4.328,4.328,0,0,1-2.709-1.00244L89.38764,60.883a5.85732,5.85732,0,0,0,3.91425,1.38434c2.02875,0,3.37732-1.0144,3.37732-2.72089V59.52253C96.67921,57.95923,95.48573,57.33869,93.57636,56.921Z" fill="#fff"/>
    </g>
  </g>
</svg>
