<svg xmlns="http://www.w3.org/2000/svg" width="256" height="256" preserveAspectRatio="xMidYMid meet" version="1.0" viewBox="0 0 192 192"><metadata>Created by potrace 1.11, written by Peter Selinger 2001-2013</metadata><g fill="#000" stroke="none"><path d="M876 1742 c-2 -1 -23 -5 -47 -8 -83 -9 -299 -93 -299 -116 0 -4 -6 -8 -13 -8 -20 0 -153 -121 -192 -176 -11 -15 -25 -32 -30 -38 -43 -45 -115 -233 -132 -341 -11 -73 -3 -241 13 -267 3 -5 7 -21 10 -36 9 -55 55 -158 98 -222 45 -68 47 -69 111 -135 83 -85 168 -138 300 -190 111 -44 319 -51 443 -15 18 5 32 6 32 3 0 -3 6 -1 13 4 6 5 34 18 61 28 61 22 77 31 147 78 64 42 196 177 219 222 8 17 18 32 21 35 22 19 79 174 95 260 9 50 11 197 2 253 -12 81 -56 204 -101 279 -37 64 -156 196 -213 238 -93 69 -251 131 -365 145 -64 7 -169 12 -173 7z" transform="translate(0.000000,192.000000) scale(0.100000,-0.100000)"/></g></svg>