<svg version="1.1"
	 xmlns="http://www.w3.org/2000/svg" xmlns:xlink="http://www.w3.org/1999/xlink" xmlns:a="http://ns.adobe.com/AdobeSVGViewerExtensions/3.0/"
	 x="0px" y="0px" width="130.1px" height="52.8px" viewBox="0 0 130.1 52.8" enable-background="new 0 0 130.1 52.8"
	 xml:space="preserve">
<defs>
</defs>
<path fill="#09639B" d="M93.9,33.8H74.5v-4.2h19.4c0.4,0,0.7-0.3,0.7-0.7v-9.6c0-0.4-0.3-0.7-0.7-0.7H78.8c-2.7,0-4.9-2.2-4.9-4.9
	V5.2c0-2.7,2.2-4.9,4.9-4.9h18.5v4.2H78.8c-0.4,0-0.7,0.3-0.7,0.7v8.4c0,0.4,0.3,0.7,0.7,0.7h15.2c2.7,0,4.9,2.2,4.9,4.9v9.6
	C98.9,31.6,96.6,33.8,93.9,33.8"/>
<path fill="#09639B" d="M130.1,33.8h-18c-2.7,0-4.9-2.2-4.9-4.9V5.2c0-2.7,2.2-4.9,4.9-4.9h18v4.2h-18c-0.4,0-0.7,0.3-0.7,0.7v23.6
	c0,0.4,0.3,0.7,0.7,0.7h18V33.8z"/>
<rect x="109.3" y="14.4" fill="#09639B" width="20.8" height="4.2"/>
<rect x="40.7" y="14.4" fill="#09639B" width="20.8" height="4.2"/>
<path fill="#09639B" d="M36.5,33.8L46,6.1c0.3-0.8,1.3-1.5,2.2-1.5h5.7c0.8,0,1.9,0.8,2.2,1.5l9.6,27.7h4.5l-10-29.1
	c-0.9-2.5-3.5-4.4-6.2-4.4h-5.7c-2.7,0-5.3,1.9-6.2,4.4L32,33.8H36.5z"/>
<path fill="#09639B" d="M28.2,29.6L5.5,21.7c-0.6-0.2-1.2-1.1-1.2-1.7v-5.9c0-0.7,0.6-1.5,1.2-1.7l22.8-7.8V0L4.1,8.3
	C1.8,9.1,0,11.6,0,14.1V20c0,2.5,1.8,4.9,4.1,5.8l24.1,8.3V29.6z"/>
<path fill="#09639B" d="M11.2,43H3.1v3h7.5c1.1,0,1.8,0.2,2.2,0.6c0.4,0.4,0.6,1.1,0.6,2.2v1.4c0,1.1-0.2,1.8-0.6,2.2
	c-0.4,0.4-1.1,0.6-2.2,0.6H3.5c-1.1,0-1.9-0.2-2.3-0.6c-0.4-0.4-0.6-1.1-0.6-2.1v-0.3l2-0.4v1.7h8.8v-3.3H3.9
	c-1.1,0-1.8-0.2-2.2-0.6c-0.4-0.4-0.6-1.1-0.6-2.2V44c0-1.1,0.2-1.8,0.6-2.2c0.4-0.4,1.1-0.6,2.2-0.6h6.5c1,0,1.8,0.2,2.2,0.5
	c0.4,0.4,0.6,1,0.6,2v0.3l-2,0.4V43z"/>
<polygon fill="#09639B" points="18.9,52.8 18.9,41.3 21.1,41.3 21.1,45.9 30.3,45.9 30.3,41.3 32.5,41.3 32.5,52.8 30.3,52.8 
	30.3,47.7 21.1,47.7 21.1,52.8 "/>
<rect x="38.3" y="41.3" fill="#09639B" width="2.2" height="11.6"/>
<path fill="#09639B" d="M48.1,43.6c0.1,0.7,0.2,1.4,0.2,2.1v7.2h-2V41.2h1.7l8.5,7.6c0.5,0.5,1,1,1.4,1.6c-0.1-0.7-0.2-1.4-0.2-2.2
	v-7h2v11.6h-1.5l-8.7-7.7C48.9,44.6,48.5,44.1,48.1,43.6"/>
<path fill="#09639B" d="M67.7,52.8c-1.1,0-1.8-0.2-2.2-0.6c-0.4-0.4-0.6-1.1-0.6-2.2v-2.2l2.2-0.4v3.7h6.2v-9.9h2.2v8.9
	c0,1.1-0.2,1.8-0.6,2.2c-0.4,0.4-1.1,0.6-2.2,0.6H67.7z"/>
<path fill="#09639B" d="M83.5,41.2v9.9H92v-9.9h2.2v8.9c0,1.1-0.2,1.8-0.6,2.2c-0.4,0.4-1.1,0.6-2.3,0.6h-7.2
	c-1.1,0-1.8-0.2-2.2-0.6c-0.4-0.4-0.6-1.1-0.6-2.2v-8.9H83.5z"/>
<polygon fill="#09639B" points="100,52.8 100,41.2 102.2,41.2 102.2,46.2 109.6,41.2 112.6,41.2 104,46.8 113.6,52.8 110,52.8 
	102.2,47.6 102.2,52.8 "/>
<path fill="#09639B" d="M119.2,41.2v9.9h8.5v-9.9h2.2v8.9c0,1.1-0.2,1.8-0.6,2.2c-0.4,0.4-1.1,0.6-2.3,0.6h-7.2
	c-1.1,0-1.8-0.2-2.2-0.6c-0.4-0.4-0.6-1.1-0.6-2.2v-8.9H119.2z"/>
</svg>
