<?xml version="1.0" encoding="utf-8"?>
<!-- Generator: Adobe Illustrator 20.1.0, SVG Export Plug-In . SVG Version: 6.00 Build 0)  -->
<svg version="1.1" id="Ebene_1" xmlns="http://www.w3.org/2000/svg" xmlns:xlink="http://www.w3.org/1999/xlink" x="0px" y="0px"
	 viewBox="0 0 1024 1024" style="enable-background:new 0 0 1024 1024;" xml:space="preserve">
<style type="text/css">
	.st0{fill-rule:evenodd;clip-rule:evenodd;fill:#449539;}
	.st1{fill-rule:evenodd;clip-rule:evenodd;fill:#727174;}
	.st2{fill:#727174;}
	.st3{fill:#010202;}
	.st4{font-family:'OpenSans-Light';}
	.st5{font-size:36px;}
</style>
<path class="st0" d="M284.1,444.6l-14.3-8.2l-38.6-22.3c-25.6-14.8-48.3-2.5-48.5,39.1l0,1.2l45.1,21.7c6.1,2.9,1.9,15.1-7.5,10.5
	l-37.7-18.4l-0.3,47.9c-0.2,34.6,18.5,57.2,47,42.7l40.5-23.4l14.1-8.2c-12.2-10.1-16.8-34.2-14-54.2l-39.3-18.9
	c-6.1-2.9-1.9-15.1,7.5-10.5l34.7,17C275.5,453.5,279.2,447.7,284.1,444.6"/>
<path class="st1" d="M310.3,459.7l-14.7-8.5c-22.1,8.3-17.4,65.3-0.1,69.4l12.9-7.5C335.5,497.5,330.7,471.4,310.3,459.7"/>
<g>
	<polygon class="st1" points="599,525.3 568.5,446.6 592.1,446.6 608.5,495.2 624.8,446.6 647.9,446.6 617.4,525.3 	"/>
	<path class="st1" d="M563.7,426.9c0,3.6-1.2,6.4-3.6,8.5c-4.8,4.2-13.3,4.2-18.1,0c-2.4-2.1-3.6-4.9-3.6-8.5c0-3.6,1.2-6.4,3.6-8.5
		c4.8-4.2,13.3-4.2,18.1,0C562.5,420.5,563.7,423.3,563.7,426.9z"/>
	<rect x="540" y="446.6" class="st1" width="22.3" height="78.7"/>
	<g>
		<path class="st1" d="M679.4,426.9c0,3.6-1.2,6.4-3.6,8.5c-4.8,4.2-13.3,4.2-18.1,0c-2.4-2.1-3.6-4.9-3.6-8.5
			c0-3.6,1.2-6.4,3.6-8.5c4.8-4.2,13.3-4.2,18.1,0C678.2,420.5,679.4,423.3,679.4,426.9z"/>
		<rect x="655.6" y="446.6" class="st1" width="22.3" height="78.7"/>
	</g>
	<path class="st1" d="M531.3,466.1c-1.7-0.4-3.7-0.8-5.9-1.3c-16.7-3.4-18.1,2.8-18.1,17.3v43.2h-22.3v-49.2
		c0-21.4,2.9-31.1,32.3-31.1c1.2,0,2.6,0.1,4.3,0.2c1.7,0.1,3.4,0.3,5.1,0.6c1.5,0.2,3,0.5,4.6,0.8V466.1z"/>
	<path class="st1" d="M418.9,485.9c0-5.7,0.9-11,2.8-16.1c1.8-5,4.5-9.4,8-13.2c3.5-3.7,7.7-6.7,12.7-8.9c5-2.2,10.7-3.3,17-3.3
		c4.2,0,8,0.4,11.5,1.1c1.9,0.4,3.7,0.9,5.5,1.5v19.5c-2.1-0.8-4.4-1.5-6.9-2.1c-2.5-0.6-5.3-0.9-8.4-0.9c-6.6,0-11.5,2-14.7,6.1
		c-3.2,4.1-4.9,9.5-4.9,16.1c0,7.1,1.5,12.6,4.6,16.5c3,3.9,8.3,5.8,15.9,5.8c2.7,0,5.6-0.2,8.7-0.7c2-0.3,3.9-0.8,5.7-1.3v19.2
		c-1.2,0.3-2.4,0.6-3.7,0.9c-3.9,0.8-8.2,1.2-12.9,1.2c-7.2,0-13.4-1.1-18.5-3.2c-5.2-2.1-9.4-5.1-12.8-8.7
		c-3.3-3.7-5.8-8.1-7.3-13.1C419.7,497.3,418.9,491.8,418.9,485.9z"/>
	<path class="st1" d="M381.2,509.3c4.1,0,7-0.4,8.7-1.2c1.7-0.8,2.5-2.3,2.5-4.6c0-1.8-1.1-3.4-3.3-4.7c-2.2-1.3-5.5-2.9-10-4.6
		c-3.5-1.3-6.7-2.6-9.5-4c-2.8-1.4-5.3-3.1-7.3-5c-2-1.9-3.5-4.3-4.6-7c-1.1-2.7-1.6-5.9-1.6-9.7c0-7.4,2.7-13.2,8.2-17.5
		c5.5-4.3,13-6.4,22.6-6.4c4.8,0,9.4,0.4,13.8,1.3c2.2,0.4,4.1,0.9,5.8,1.3v18.6c-2.4-0.8-4.9-1.5-7.7-2.1c-3-0.7-6.5-1-10.2-1
		c-7,0-10.5,1.9-10.5,5.8c0,0.9,0.1,1.7,0.4,2.4c0.3,0.7,0.9,1.4,1.8,2c0.9,0.6,2.1,1.3,3.7,2.1c1.5,0.8,3.5,1.6,5.9,2.5
		c4.9,1.8,8.9,3.6,12.1,5.4c3.2,1.7,5.7,3.7,7.6,5.7c1.8,2,3.1,4.3,3.9,6.8c0.7,2.5,1.1,5.4,1.1,8.6c0,7.8-2.9,13.6-8.7,17.6
		c-5.8,4-14.1,6-24.7,6c-7,0-12.8-0.6-17.4-1.8c-2.2-0.6-4.1-1.1-5.6-1.6v-19.4c3.7,1.4,7.5,2.6,11.4,3.4
		C373.4,508.8,377.3,509.3,381.2,509.3z"/>
	<path class="st2" d="M735.4,526c-3.4,0.8-7.5,1.2-12.4,1.2c-6.2,0-11.4-0.8-15.5-2.5c-4.1-1.7-7.4-4-9.8-6.9
		c-2.5-3-4.2-6.5-5.1-10.8c-1-4.2-1.5-8.9-1.5-14v-66.5l22.9-3.6v23.3h17.5v18.7h-17.5v27.8c0,4.7,0.8,8.5,2.5,11.3
		c1.7,2.8,5.1,4.2,10.2,4.2c2.5,0,3-0.2,5.6-0.7L735.4,526z"/>
	<path class="st2" d="M817.5,485.7c0,6.2-0.9,11.9-2.8,17.1c-1.8,5.2-4.5,9.6-8,13.2c-3.5,3.7-7.7,6.5-12.5,8.5
		c-4.9,2-10.3,3-16.4,3c-5.9,0-11.3-1-16.2-3c-4.9-2-9-4.8-12.5-8.5c-3.5-3.7-6.2-8.1-8.1-13.2c-1.9-5.2-2.9-10.9-2.9-17.1
		c0-6.2,1-11.9,3-17c2-5.1,4.8-9.5,8.3-13.1s7.7-6.4,12.6-8.4c4.9-2,10.2-3,15.9-3c5.8,0,11.2,1,16.1,3c4.9,2,9,4.8,12.5,8.4
		c3.5,3.6,6.2,8,8.1,13.1C816.6,473.8,817.5,479.5,817.5,485.7z M794.2,485.7c0-6.9-1.4-12.4-4.2-16.3c-2.8-4-6.8-5.9-12.1-5.9
		s-9.3,2-12.1,5.9c-2.9,4-4.3,9.4-4.3,16.3c0,6.9,1.4,12.4,4.3,16.5c2.9,4.1,6.9,6.1,12.1,6.1s9.2-2,12.1-6.1
		C792.8,498.1,794.2,492.6,794.2,485.7z"/>
</g>
<text transform="matrix(1 0 0 1 183 614)" class="st3 st4 st5">The professional cloud-based Rails CMS</text>
</svg>
