<?xml version="1.0" encoding="UTF-8" ?>
<!DOCTYPE svg PUBLIC "-//W3C//DTD SVG 1.1//EN" "http://www.w3.org/Graphics/SVG/1.1/DTD/svg11.dtd">
<svg width="2000pt" height="500pt" viewBox="0 0 2000 500" version="1.1" xmlns="http://www.w3.org/2000/svg">
<path fill="#0b7bff" d=" M 0.00 0.00 L 2000.00 0.00 L 2000.00 500.00 L 0.00 500.00 L 0.00 0.00 Z" />
<path fill="#f8fbff" d=" M 369.00 148.21 C 386.02 148.04 403.05 148.13 420.08 148.17 C 434.34 178.20 448.64 208.23 463.00 238.22 C 476.70 208.24 490.48 178.28 504.02 148.22 C 520.39 148.05 536.77 148.09 553.14 148.20 C 530.46 190.82 507.55 233.33 484.80 275.92 C 483.42 278.37 483.95 281.26 483.86 283.95 C 483.90 307.74 483.86 331.53 483.87 355.32 C 469.46 355.36 455.05 355.34 440.64 355.34 C 440.64 330.22 440.61 305.09 440.66 279.97 C 440.62 278.66 440.67 277.27 439.92 276.13 C 416.24 233.51 392.64 190.85 369.00 148.21 Z" />
<path fill="#f8fbff" d=" M 1057.84 148.21 C 1072.32 148.01 1086.80 148.16 1101.29 148.15 C 1101.31 204.78 1101.27 261.41 1101.31 318.04 C 1135.48 318.29 1169.65 318.06 1203.82 318.15 C 1203.84 330.54 1203.82 342.93 1203.83 355.33 C 1155.17 355.34 1106.51 355.38 1057.84 355.31 C 1057.83 286.27 1057.84 217.24 1057.84 148.21 Z" />
<path fill="#f8fbff" d=" M 1389.98 148.36 C 1403.26 148.38 1416.54 148.36 1429.82 148.38 C 1429.86 172.87 1429.78 197.37 1429.86 221.87 C 1435.08 215.15 1440.99 208.68 1448.60 204.62 C 1455.67 200.56 1463.90 199.03 1471.97 198.71 C 1484.51 198.32 1497.46 201.00 1508.02 207.99 C 1519.76 215.74 1528.01 227.94 1532.81 241.01 C 1537.47 253.75 1538.93 267.48 1538.54 280.98 C 1537.97 301.87 1532.35 323.38 1518.75 339.69 C 1508.96 351.91 1493.52 358.88 1477.98 359.32 C 1466.82 359.70 1455.12 358.30 1445.35 352.52 C 1438.69 348.62 1433.86 342.40 1429.39 336.26 C 1429.16 342.61 1429.31 348.96 1429.27 355.32 C 1416.13 355.35 1403.00 355.37 1389.86 355.31 C 1389.93 286.33 1389.70 217.34 1389.98 148.36 Z" />
<path fill="#f8fbff" d=" M 756.12 206.10 C 769.41 198.71 785.07 197.13 800.03 197.80 C 815.50 198.73 831.63 202.18 844.05 211.97 C 855.00 220.81 859.85 235.07 860.88 248.70 C 847.52 248.66 834.16 248.88 820.81 248.59 C 820.29 242.72 817.96 236.58 812.91 233.17 C 805.97 228.34 797.10 228.12 788.97 228.60 C 783.18 228.99 776.82 230.26 772.84 234.86 C 768.99 238.70 769.03 245.44 772.55 249.47 C 775.03 252.14 778.66 253.24 782.03 254.32 C 794.50 258.05 807.26 260.68 819.91 263.67 C 832.93 267.05 846.29 272.18 855.52 282.39 C 863.94 291.55 866.68 304.84 864.61 316.90 C 862.64 332.55 851.78 346.31 837.60 352.89 C 822.50 359.90 805.44 360.91 789.04 360.42 C 772.49 359.56 754.87 356.26 742.10 344.91 C 731.14 335.37 725.03 320.91 725.28 306.44 C 738.82 306.40 752.35 306.45 765.89 306.41 C 766.89 312.55 768.17 319.49 773.52 323.44 C 781.37 329.14 791.61 329.62 800.97 329.49 C 808.08 329.22 815.91 328.31 821.46 323.41 C 827.18 317.90 824.83 307.26 817.43 304.48 C 799.33 297.27 779.74 294.95 761.43 288.42 C 751.96 284.91 742.18 280.34 736.11 271.91 C 729.76 262.75 728.98 250.87 730.79 240.16 C 733.46 225.71 743.53 213.31 756.12 206.10 Z" />
<path fill="#f8fbff" d=" M 905.77 213.76 C 918.22 201.67 936.18 197.73 953.03 197.65 C 970.13 197.72 988.11 200.56 1002.36 210.65 C 1014.40 219.32 1019.85 234.37 1020.88 248.70 C 1007.54 248.72 994.21 248.76 980.87 248.68 C 980.25 243.03 978.23 237.07 973.48 233.58 C 966.81 228.59 958.05 228.13 950.05 228.54 C 943.91 228.85 937.08 229.99 932.83 234.87 C 929.15 238.55 929.05 244.84 932.10 248.93 C 934.05 251.42 937.09 252.68 940.01 253.67 C 954.38 258.28 969.29 260.87 983.86 264.73 C 996.59 268.46 1009.62 274.24 1017.79 285.16 C 1026.07 296.23 1026.91 311.33 1022.98 324.23 C 1018.79 338.06 1007.59 349.19 994.23 354.37 C 979.60 360.12 963.57 360.95 948.03 360.38 C 932.47 359.43 916.08 356.36 903.69 346.25 C 891.78 336.75 884.99 321.61 885.28 306.43 C 898.82 306.41 912.37 306.43 925.91 306.42 C 926.88 312.80 928.36 320.04 934.12 323.89 C 942.55 329.49 953.20 329.72 962.98 329.42 C 969.61 328.94 976.96 327.85 981.88 322.96 C 987.10 317.30 984.60 307.19 977.42 304.47 C 961.98 298.39 945.48 295.65 929.57 291.09 C 919.42 287.96 909.02 284.29 900.90 277.21 C 894.17 271.47 890.67 262.71 890.15 254.00 C 888.50 239.05 894.66 223.80 905.77 213.76 Z" />
<path fill="#f8fbff" d=" M 585.43 213.44 C 596.89 202.92 612.90 199.40 628.01 198.61 C 646.80 197.61 666.43 200.45 682.80 210.19 C 694.05 216.95 698.92 230.47 699.26 243.04 C 699.45 270.58 699.20 298.13 699.39 325.67 C 699.52 331.42 699.23 337.32 701.04 342.86 C 702.12 345.94 705.00 347.77 707.70 349.31 C 707.77 351.31 707.80 353.32 707.84 355.33 C 693.37 355.40 678.90 355.25 664.43 355.41 C 661.68 349.87 661.60 343.61 660.32 337.69 C 649.43 349.14 635.14 358.46 619.02 359.66 C 604.11 361.47 587.84 357.86 576.80 347.19 C 569.74 340.71 565.78 331.41 564.73 321.98 C 563.73 311.32 564.58 300.10 569.65 290.49 C 575.04 280.10 585.12 272.72 596.13 269.20 C 611.56 263.77 628.10 263.61 644.04 260.57 C 649.90 259.37 656.79 256.92 658.84 250.67 C 660.24 244.98 658.65 237.90 653.41 234.65 C 648.80 231.87 643.32 231.13 638.05 230.74 C 630.85 230.44 623.04 230.68 616.84 234.80 C 611.21 238.49 609.11 245.38 607.90 251.63 C 595.01 251.67 582.12 251.66 569.23 251.64 C 570.01 237.62 574.69 223.02 585.43 213.44 Z" />
<path fill="#f8fbff" d=" M 1253.40 205.46 C 1264.79 200.16 1277.53 198.50 1289.99 198.47 C 1303.21 198.20 1316.55 200.32 1328.84 205.25 C 1335.81 208.01 1342.76 211.75 1347.28 217.93 C 1352.95 225.33 1354.99 234.84 1355.29 244.00 C 1355.42 271.99 1355.18 299.99 1355.42 327.98 C 1355.49 332.98 1355.46 338.10 1357.06 342.90 C 1358.15 345.99 1361.07 347.79 1363.76 349.37 C 1363.78 351.39 1363.76 353.41 1363.70 355.43 C 1349.26 355.27 1334.83 355.32 1320.40 355.40 C 1317.81 349.75 1317.26 343.51 1316.50 337.42 C 1310.28 344.15 1302.94 349.88 1294.78 354.06 C 1285.32 358.90 1274.47 360.52 1263.95 359.97 C 1252.31 359.35 1240.63 355.03 1232.31 346.71 C 1225.30 340.05 1221.52 330.58 1220.63 321.07 C 1219.90 311.53 1220.52 301.60 1224.54 292.78 C 1229.13 282.26 1238.54 274.33 1249.15 270.28 C 1262.35 265.15 1276.58 263.86 1290.53 262.13 C 1297.32 261.02 1304.64 260.50 1310.49 256.49 C 1318.49 251.04 1316.14 236.97 1307.37 233.56 C 1300.67 230.69 1293.18 230.42 1286.01 230.79 C 1279.84 231.24 1273.21 233.10 1269.20 238.13 C 1266.18 242.03 1264.84 246.88 1263.88 251.64 C 1250.99 251.65 1238.11 251.67 1225.23 251.64 C 1225.86 240.58 1228.84 229.40 1235.28 220.27 C 1239.95 213.91 1246.23 208.76 1253.40 205.46 Z" />
<path fill="#0b7bff" d=" M 1458.53 233.94 C 1467.46 232.99 1477.20 234.95 1483.94 241.21 C 1490.21 247.12 1493.50 255.49 1495.04 263.82 C 1497.10 275.62 1497.28 287.91 1494.33 299.58 C 1492.21 307.34 1488.43 314.96 1482.17 320.18 C 1475.26 325.99 1465.54 327.39 1456.88 325.73 C 1449.30 324.59 1442.14 320.41 1437.83 314.03 C 1430.09 303.04 1428.12 289.12 1428.74 275.98 C 1429.34 264.92 1431.09 253.12 1438.34 244.29 C 1443.20 238.11 1450.81 234.68 1458.53 233.94 Z" />
<path fill="#0b7bff" d=" M 616.11 293.46 C 629.92 287.52 646.10 289.09 659.12 280.98 C 659.27 292.82 660.37 305.63 654.31 316.34 C 649.70 324.16 640.70 328.08 632.24 330.13 C 625.12 331.33 616.99 331.58 610.97 326.93 C 604.81 322.45 603.83 313.94 604.98 306.94 C 606.00 300.88 610.52 295.81 616.11 293.46 Z" />
<path fill="#0b7bff" d=" M 1301.00 286.58 C 1306.09 285.71 1310.61 283.17 1315.29 281.12 C 1315.07 292.28 1316.29 304.10 1311.31 314.49 C 1307.12 323.47 1297.29 327.99 1288.14 330.16 C 1280.84 331.37 1272.45 331.54 1266.45 326.51 C 1260.95 322.15 1260.02 314.46 1260.80 307.94 C 1261.54 301.45 1266.22 295.89 1272.17 293.43 C 1281.33 289.56 1291.39 288.83 1301.00 286.58 Z" />
<path fill="#f8fbff" d=" M 1566.09 313.38 C 1580.27 313.42 1594.44 313.37 1608.62 313.40 C 1608.64 327.38 1608.65 341.36 1608.62 355.34 C 1594.38 355.32 1580.13 355.39 1565.89 355.31 C 1566.01 341.33 1565.63 327.35 1566.09 313.38 Z" />
</svg>
