<svg width="406" height="405" viewBox="0 0 406 405" fill="none" xmlns="http://www.w3.org/2000/svg">
<path d="M202.056 400.26C311.491 400.26 400.205 311.546 400.205 202.112C400.205 92.6772 311.491 3.96298 202.056 3.96298C92.6217 3.96298 3.90747 92.6772 3.90747 202.112C3.90747 311.546 92.6217 400.26 202.056 400.26Z" fill="#FEFEFE"/>
<path fill-rule="evenodd" clip-rule="evenodd" d="M202.891 0C314.48 0 405.002 90.4531 405.002 202.112C405.002 313.701 314.549 404.223 202.891 404.223C91.3015 404.223 0.778809 313.77 0.778809 202.112C0.778809 90.5227 91.232 0 202.891 0ZM200.874 10.4289C199.901 10.4289 198.997 10.4289 198.024 10.4984C93.5263 12.028 9.19144 97.2667 9.19144 202.112C9.19144 307.096 93.7349 392.404 198.371 393.725C146.644 392.404 104.998 349.993 104.998 297.918C104.998 245.009 147.965 202.112 200.805 202.112C253.714 202.112 296.611 159.145 296.611 106.305C296.611 53.3959 253.644 10.4984 200.805 10.4984L200.874 10.4289Z" fill="#3C73C4"/>
<path fill-rule="evenodd" clip-rule="evenodd" d="M170.63 125.147V53.7435C170.63 50.6148 171.743 47.9033 174.037 45.6785C176.332 43.3841 179.043 42.2717 182.172 42.2717H219.438C222.497 42.2717 225.208 43.3841 227.433 45.6785C229.658 47.9728 230.84 50.6844 230.84 53.7435V125.147C230.84 128.345 229.727 131.056 227.433 133.281C225.208 135.506 222.497 136.688 219.299 136.688H182.241C179.043 136.688 176.262 135.575 174.037 133.281C171.812 131.056 170.7 128.345 170.7 125.147H170.63ZM218.951 124.729V54.2997H182.589V124.729H218.951Z" fill="#3C73C4"/>
<path fill-rule="evenodd" clip-rule="evenodd" d="M184.188 341.094H202.543V270.664H184.466C182.798 270.664 181.407 270.108 180.225 268.926C179.043 267.744 178.487 266.354 178.487 264.685C178.487 263.016 179.043 261.626 180.225 260.444C181.407 259.262 182.798 258.706 184.466 258.706H214.432V341.094H226.39V316.204C226.39 314.605 226.946 313.214 228.128 312.032C229.31 310.85 230.701 310.224 232.37 310.224C234.038 310.224 235.429 310.781 236.611 311.963C237.793 313.145 238.349 314.535 238.349 316.204V347.073C238.349 348.742 237.793 350.132 236.611 351.314C235.429 352.496 234.038 353.052 232.37 353.052H184.188C182.519 353.052 181.129 352.427 179.947 351.245C178.765 350.063 178.209 348.603 178.209 346.934C178.209 345.335 178.765 343.944 179.947 342.832C181.129 341.72 182.519 341.094 184.188 341.094Z" fill="white"/>
</svg>
