<svg xmlns="http://www.w3.org/2000/svg" xmlns:xlink="http://www.w3.org/1999/xlink" id="レイヤー_1" width="640" height="640" x="0" y="0" enable-background="new 0 0 640 640" version="1.1" viewBox="0 0 640 640" xml:space="preserve"><path fill="#FFF" fill-rule="evenodd" d="M318.557,9.533c171.952,0,311.339,139.393,311.339,311.335	c0,171.948-139.388,311.335-311.339,311.335c-171.943,0-311.335-139.388-311.335-311.335C7.222,148.925,146.614,9.533,318.557,9.533	L318.557,9.533z" clip-rule="evenodd"/><path fill-rule="evenodd" d="M319.863,3.372c175.344,0,317.505,142.152,317.505,317.496	S495.207,638.363,319.863,638.363c-175.348,0-317.495-142.152-317.495-317.496S144.516,3.372,319.863,3.372L319.863,3.372z M316.642,19.787c-1.485,0-2.971,0.028-4.452,0.066C148.02,22.239,15.533,156.175,15.533,320.9	c0,164.915,132.798,298.964,297.218,301.048c-81.311-2.056-146.661-68.685-146.661-150.49c0-83.108,67.448-150.558,150.552-150.558	c83.118,0,150.558-67.449,150.558-150.552C467.199,87.235,399.76,19.787,316.642,19.787L316.642,19.787z" clip-rule="evenodd"/><g><path fill="#FFF" d="M226.484,443.254l9.911-3.304h21.734v-23.474h-35.992v-14.084h60.161v51.294h-32.689l-1.913,26.255h34.949 c0,35.123-5.45,61.96-16.344,80.505h-22.778c-0.582-4.059-2.956-6.781-7.129-8.172l-11.128-3.651l3.999-12.346l21.561,6.26 c3.939-13.215,5.912-29.385,5.912-48.512h-34.775L226.484,443.254z M291.688,561.142l-8.694-27.472 c4.635-1.274,10.433-2.492,17.388-3.651v-38.427h-14.779v-13.91h14.779v-70.942l12.693-4.173h71.637v13.91h-60.336v10.78h53.729 v13.91h-53.729v10.78h53.729v13.91h-53.729v11.824h49.903c0.695-2.782,1.97-5.273,3.825-7.477l11.823,4.694 c-2.435,4.754-3.711,10.318-3.825,16.692h-42.773c4.868,4.985,10.025,10.606,15.475,16.865c5.1-4.868,9.216-10.084,12.346-15.648 c5.678,5.798,11.358,10.145,17.04,13.041c-4.869,4.289-9.333,9.797-13.389,16.518c-4.06-4.056-8.463-7.591-13.215-10.606 c5.564,7.072,11.012,14.432,16.345,22.083l5.042-3.304l6.781,10.606c-9.737,5.795-17.679,12.285-23.821,19.474h-3.999 c-9.737-27.473-21.446-50.481-35.123-69.028h-2.782v36.34l21.909-0.869l-0.174,12.866 C328.142,544.103,310.119,551.171,291.688,561.142z"/></g><g><path d="M228.926,235.424c1.622-3.825,3.187-9.911,4.694-18.257c1.622-8.808,2.435-16.806,2.435-23.995V103.8l15.649-3.478h123.8 v42.426H261.441c0,23.995-1.913,44.165-5.738,60.509c-4.754,20.287-12.579,37.443-23.473,51.467 c-3.826-5.216-8.172-9.563-13.041-13.041l5.738-9.389L228.926,235.424z M322.298,192.129v11.476l61.552-4.694l1.044,13.91 l-62.596,4.694v17.735c14.953-5.216,29.151-3.999,42.6,3.651c2.317-8.229,5.156-15.127,8.52-20.691l11.303,4.521 c-4.06,9.971-6.725,21.849-7.999,35.645c-7.998-5.912-18.664-8.868-31.993-8.868c-12.519-0.233-22.142,2.027-28.863,6.781h-19.126 v-36.862l-38.427,2.956l-1.043-13.91l39.47-2.956v-11.649l-34.427,2.608l-1.043-13.736l35.471-2.608v-7.303 c-9.623,0.582-19.186,0.407-28.689-0.521v-12.346c12.286-0.23,27.82-3.07,46.599-8.52c14.72-4.287,31.007-4.404,48.86-0.348v11.824 c-12.172,0.348-25.908,2.377-41.209,6.086v9.215l55.293-4.173l1.043,13.736L322.298,192.129z M261.441,128.664h88.503v-14.258 h-88.503V128.664z"/></g></svg>