<?xml version="1.0" standalone="no"?>
<!DOCTYPE svg PUBLIC "-//W3C//DTD SVG 20010904//EN"
 "http://www.w3.org/TR/2001/REC-SVG-20010904/DTD/svg10.dtd">
<svg version="1.0" xmlns="http://www.w3.org/2000/svg"
 width="350.000000pt" height="350.000000pt" viewBox="0 0 350.000000 350.000000"
 preserveAspectRatio="xMidYMid meet">
<metadata>
Created by potrace 1.11, written by Peter Selinger 2001-2013
</metadata>
<g transform="translate(0.000000,350.000000) scale(0.100000,-0.100000)"
fill="#000000" stroke="none">
<path d="M0 1750 l0 -1750 1750 0 1750 0 0 1750 0 1750 -1750 0 -1750 0 0
-1750z m1990 1378 c584 -94 1037 -556 1136 -1158 20 -117 13 -376 -11 -490
-44 -204 -128 -393 -243 -546 -222 -295 -531 -481 -906 -546 -140 -24 -344
-21 -480 6 -351 71 -650 264 -859 555 -257 356 -327 781 -201 1218 104 360
367 669 713 838 248 122 572 169 851 123z"/>
<path d="M1550 3098 c-437 -72 -790 -325 -994 -708 -168 -317 -202 -689 -96
-1035 108 -351 361 -646 695 -813 82 -40 234 -97 241 -89 3 2 -15 17 -38 32
-196 130 -310 342 -310 580 -1 124 20 213 74 325 34 70 56 100 132 175 144
143 268 196 508 215 214 18 323 64 454 195 169 167 235 379 190 605 -27 136
-83 239 -180 335 -143 142 -282 196 -496 194 -69 -1 -150 -6 -180 -11z m341
-227 c18 -22 19 -43 19 -303 0 -163 -4 -287 -10 -298 -16 -30 -66 -40 -194
-40 -131 0 -181 9 -202 37 -19 25 -20 571 -1 595 27 34 51 38 210 36 153 -3
159 -4 178 -27z"/>
<path d="M1580 2565 l0 -245 125 0 125 0 0 245 0 245 -125 0 -125 0 0 -245z"/>
<path d="M1551 1348 c-17 -45 2 -58 84 -58 l75 0 0 -250 0 -250 -64 0 c-35 0
-71 -3 -80 -6 -23 -9 -21 -61 3 -74 11 -6 91 -10 188 -10 223 0 213 -8 213
155 0 99 -3 127 -16 139 -20 20 -38 20 -58 0 -12 -12 -16 -37 -16 -110 l0 -94
-40 0 -40 0 0 290 0 290 -120 0 c-116 0 -121 -1 -129 -22z"/>
</g>
</svg>
