<svg xmlns="http://www.w3.org/2000/svg" width="100" height="100" fill="none" viewBox="0 0 100 100"><path fill="#fff" fill-rule="evenodd" d="M40 66C54.3594 66 66 54.3594 66 40C66 25.6406 54.3594 14 40 14C25.6406 14 14 25.6406 14 40C14 54.3594 25.6406 66 40 66ZM40 80C62.0914 80 80 62.0914 80 40C80 17.9086 62.0914 0 40 0C17.9086 0 0 17.9086 0 40C0 62.0914 17.9086 80 40 80Z" clip-rule="evenodd"/><path fill="#fff" fill-rule="evenodd" d="M62.5878 62.5878C65.3215 59.8542 69.7536 59.8542 72.4873 62.5878L96.9497 87.0503C99.6834 89.7839 99.6834 94.2161 96.9497 96.9497C94.2161 99.6834 89.7839 99.6834 87.0502 96.9497L62.5878 72.4873C59.8541 69.7537 59.8541 65.3215 62.5878 62.5878Z" clip-rule="evenodd"/></svg>